<?xml version="1.0" encoding="UTF-8"?>
<svg id="Camada_1" data-name="Camada 1" xmlns="http://www.w3.org/2000/svg" viewBox="0 0 460 512">
  <defs>
    <style>
      .cls-1 {
        fill: #0072f2;
      }
    </style>
  </defs>
  <path class="cls-1" d="M452.5,350.96v-79.6c.1-2.05.27-4.09.27-6.14v-117.2c0-78.31-71.02-142.02-158.31-142.02h-128.93C78.24,6,7.23,69.71,7.23,148.02v117.2c0,78.31,71.02,142.02,158.31,142.02h128.93c3.37,0,7-.13,11.09-.39h4.25v92.58c0,2.66,1.78,5.05,4.51,6.07.91.34,1.86.5,2.8.5,1.9,0,123.99-68.14,135.38-155.04ZM180.96,313.79c-.6,0-1.17.07-1.73.2-30.04-2.22-53.28-24.69-53.28-51.95v-110.86c0-28.75,26.07-52.13,58.11-52.13h91.88c32.04,0,61.02,23.38,61.02,52.13l-.32,162.61h-155.68Z"/>
</svg>