<?xml version="1.0" encoding="UTF-8"?>
<!DOCTYPE svg PUBLIC "-//W3C//DTD SVG 1.1//EN" "http://www.w3.org/Graphics/SVG/1.1/DTD/svg11.dtd">
<!-- Creator: CorelDRAW -->
<svg xmlns="http://www.w3.org/2000/svg" xml:space="preserve" width="102.69mm" height="26.5818mm" version="1.1" style="shape-rendering:geometricPrecision; text-rendering:geometricPrecision; image-rendering:optimizeQuality; fill-rule:evenodd; clip-rule:evenodd"
viewBox="0 0 6754.45 1748.42"
 xmlns:xlink="http://www.w3.org/1999/xlink"
 xmlns:xodm="http://www.corel.com/coreldraw/odm/2003">
 <defs>
  <style type="text/css">
   <![CDATA[
    .fil0 {fill:#0072F2}
    .fil2 {fill:#0072F2;fill-rule:nonzero}
    .fil1 {fill:white;fill-rule:nonzero}
   ]]>
  </style>
 </defs>
 <g id="Camada_x0020_1">
  <metadata id="CorelCorpID_0Corel-Layer"/>
  <path class="fil0" d="M742.36 1507.03l-92.23 0c-342.35,-0.01 -650.13,-258.15 -650.13,-610.29l0 -286.45c0,-352.14 307.79,-610.3 650.15,-610.29l315.17 0.01c342.34,0.01 650.13,258.15 650.13,610.29l0 286.45c0,7.36 -0.3,14.58 -0.7,21.86l0 204.84 -2.23 17.02c-22.95,175.11 -132.71,321.12 -262.74,433.83 -82.77,71.74 -214.69,174.12 -329.14,174.12 -33.62,0 -66.97,-6 -98.49,-17.71 -97.44,-36.24 -165.98,-122.78 -179.8,-223.68z"/>
  <path class="fil1" d="M1351.66 1106.29l0 -194.56c0.17,-5.04 0.7,-9.92 0.7,-14.96l0 -286.45c0,-191.43 -173.68,-347.19 -387.04,-347.19l-315.17 -0.01c-213.36,0 -387.04,155.76 -387.04,347.19l0 286.45c0,191.43 173.68,347.19 387.04,347.19l315.17 0.01c8.18,0 17.06,-0.35 27.15,-0.87l10.44 0 0 226.24c0,6.44 4.35,12.36 10.96,14.79 2.26,0.87 4.53,1.22 6.79,1.22 4.7,0 303.16,-166.55 331.01,-379.04zm-663.76 -90.85c-1.39,0 -2.78,0.17 -4.18,0.52 -73.44,-5.39 -130.18,-60.39 -130.18,-127.04l0 -270.97c0,-70.31 63.7,-127.39 142.01,-127.39l224.67 0.01c78.31,0 149.15,57.08 149.15,127.39l-0.7 397.49 -380.6 -0.01 -0.18 0z"/>
  <path class="fil2" d="M2200.55 1000.76l-231.6 0c-35.71,0 -58.87,-25.09 -58.87,-71.41l0 -461.27 -151.51 0 0 502.77c0,87.82 41.5,171.77 124.49,171.77l368.64 0 -51.15 -141.86zm484.44 -408.2l-299.15 0 -51.15 137.03 350.3 0c27.99,0 50.18,22.2 50.18,49.22l0 25.09 -321.35 0c-73.34,0 -133.17,79.13 -133.17,152.47l0 19.3c0,105.19 85.88,171.78 191.07,171.78l213.27 0c105.19,0 191.07,-85.89 191.07,-191.08l0 -172.74c0,-105.18 -85.88,-191.07 -191.07,-191.07zm50.18 363.81c0,27.02 -22.19,49.22 -50.18,49.22l-213.27 0c-27.02,0 -49.21,-13.51 -49.21,-41.5l0 -4.83c0,-19.3 21.23,-39.56 45.35,-39.56l267.31 0 0 36.67zm687.09 -363.81l0 367.67c0,27.02 -22.2,49.21 -50.18,49.21l-214.24 0c-27.02,0 -49.21,-22.19 -49.21,-49.21l0 -367.67 -141.86 0 0 361.88c0,106.15 85.88,192.04 191.07,192.04l214.24 0c105.18,0 191.07,-85.89 191.07,-192.04l0 -361.88 -140.89 0zm643.66 -2.89l-214.24 0c-105.19,0 -191.07,85.88 -191.07,191.07l0 361.88 141.86 0 0 -366.7c0,-27.99 22.19,-50.18 49.21,-50.18l214.24 0c27.98,0 50.18,22.19 50.18,50.18l0 366.7 140.89 0 0 -361.88c0,-105.19 -85.89,-191.07 -191.07,-191.07zm743.06 414.96l-270.2 0c-27.02,0 -49.21,-22.2 -49.21,-49.22l0 -182.38c0,-27.02 22.19,-49.22 49.21,-49.22l259.59 0 51.15 -137.03 -310.74 0c-105.19,0 -191.07,85.88 -191.07,191.07l0 172.74c0,105.19 85.88,191.07 191.07,191.07l320.38 0 -50.18 -137.03zm554.89 -416.89l-220.02 0c-25.09,0 -49.21,10.62 -69.48,27.99l0 -332.93 -141.86 88.78 0 771.04 141.86 0 0 -368.64c0,-27.02 22.19,-49.21 49.21,-49.21l220.02 0c27.99,0 50.18,22.19 50.18,49.21l0 368.64 140.89 0 0 -363.81c0,-105.19 -64.66,-191.08 -170.8,-191.08zm657.17 4.83l-203.62 0c-105.19,0 -191.07,85.89 -191.07,191.07l0 172.74c0,105.19 85.88,191.08 191.07,191.08l376.36 0 -50.19 -141.86 -326.17 0c-27.02,0 -49.21,-22.2 -49.21,-49.22l0 -20.27 443.9 0 0 -152.47c0,-105.18 -85.88,-191.07 -191.07,-191.07zm-252.83 227.75l0 -41.5c0,-27.02 22.19,-49.22 49.21,-49.22l203.62 0c27.02,0 49.21,22.2 49.21,49.22l0 41.5 -302.05 0zm720.86 -228.71c-105.19,0 -191.07,85.89 -191.07,191.08l0 361.88 141.86 0 0 -366.7c0,-27.99 22.19,-50.18 49.21,-50.18l214.24 0 51.14 -136.07 -265.38 0z"/>
 </g>
</svg>
