<svg xmlns="http://www.w3.org/2000/svg" id="Camada_1" data-name="Camada 1" viewBox="57.47 58.12 394.55 85.38">
  <defs>
    <style>
      .cls-1 {
        fill: #fafafa;
      }

    </style>
  </defs>
  <g>
    <rect class="cls-1" x="283.58" y="58.86" width="17.29" height="14.44" rx="6.2" ry="6.2"/>
    <path class="cls-1" d="M234.19,78.24h0c-3.6-1.05-8-1.56-13.08-1.49-5.19,0-10.22.46-13.92,1.16-.96.18-1.25,1.89-1.25,2.53v6.56c0,.78.77,1.41,1.73,1.41h8.54c3.72,0,8.58.26,10.31.78,1.53.46,2.54,1.09,3.08,1.93.61.95.92,2.17.92,3.63v2.87h-17.44c-6.96,0-12.25,1.32-15.72,3.92-3.52,2.63-5.3,6.08-5.3,10.24v4.1c0,4.21,1.61,7.59,4.78,10.04,3.14,2.43,7.13,3.75,12.03,3.75,2.65,0,22.9.04,23.62-.01,11.78-.97,13.22-6.97,13.22-7.74v-27.9c0-4.25-.97-7.69-2.88-10.22-1.95-2.57-4.86-4.44-8.64-5.55ZM229.82,117.23c-.08.03-21.81,3.54-21.99-3.19v-2.08c0-1.68.6-2.98,1.83-3.96,1.27-1.01,3.49-1.63,6.53-1.85l13.62-.49v11.56Z"/>
    <path class="cls-1" d="M298.52,78.05h-12.59c-.87,0-1.57.63-1.57,1.41v48.83c0,.78.7,1.41,1.57,1.41h12.59c.87,0,1.57-.63,1.57-1.41v-48.83c0-.78-.7-1.41-1.57-1.41Z"/>
    <path class="cls-1" d="M344.93,78.05h-12.24v-12.26c0-.78-.7-1.41-1.57-1.41h-11.36c-.79,0-1.46.53-1.56,1.24l-.13,12.35h-8.51c-.71.15-.63,1.76-.63,2.42v8.18c0,.78.7,1.41,1.57,1.41h6.94l-.38,21.53c-.07,4.24.5,7.73,1.69,10.39,1.26,2.82,3.36,4.87,6.22,6.08,2.7,1.15,6.18,1.73,10.32,1.73h9.04c.87,0,1.57-.63,1.57-1.41v-8.29c0-.72-.61-1.33-1.41-1.4l-6.84-.64c-.67-.05-1.31-.18-1.93-.38-.53-.17-1.02-.47-1.51-.9-.46-.41-.82-1.01-1.08-1.78-.29-.86-.44-2.03-.44-3.46v-21.46h12.24c.87,0,1.57-.63,1.57-1.41v-9.11c0-.78-.7-1.41-1.57-1.41Z"/>
    <path class="cls-1" d="M399.46,82.85h0c-2.24-2-5.16-3.43-8.68-4.25-3.37-.79-7.43-1.19-12.06-1.19s-8.45.37-11.81,1.09c-3.53.76-6.48,2.18-8.76,4.21-2.27,2.02-3.95,4.81-5.01,8.28-1.02,3.35-1.53,7.65-1.53,12.79s.52,9.16,1.53,12.48c1.05,3.43,2.71,6.21,4.93,8.26,2.24,2.06,5.16,3.55,8.68,4.4,3.38.82,7.4,1.24,11.97,1.24s8.79-.4,12.16-1.19c3.52-.82,6.44-2.27,8.69-4.31,2.23-2.02,3.88-4.81,4.89-8.28.98-3.35,1.48-7.59,1.48-12.6s-.52-9.35-1.53-12.7c-1.06-3.47-2.72-6.24-4.95-8.23ZM388.86,112.03c-.44,1.91-1.09,3.33-1.93,4.2-.8.83-1.78,1.37-3,1.63-1.41.3-3.16.46-5.21.46s-3.69-.15-5.1-.46c-1.2-.26-2.16-.79-2.93-1.61-.82-.88-1.48-2.31-1.95-4.24-.5-2.05-.76-4.85-.76-8.32s.25-6.16.76-8.18c.47-1.9,1.13-3.31,1.95-4.2.76-.82,1.72-1.35,2.93-1.61,1.42-.3,3.13-.46,5.1-.46s3.79.16,5.21.46c1.21.26,2.19.79,3,1.63.84.88,1.49,2.28,1.93,4.16.47,2.03.71,4.79.71,8.2s-.24,6.28-.71,8.34Z"/>
    <path class="cls-1" d="M445.89,77.41c-3.6-.28-17.13-2.31-26.42,2.48-2.46,1.27-4.02,1.4-4.4,7.59v40.81c0,.78.7,1.41,1.57,1.41h12.59c.87,0,1.57-.63,1.57-1.41v-31.3c-.59-8.47,18.53-4.87,19.43-4.75.45.06.91-.06,1.25-.33.34-.27.54-.66.54-1.06v-9.8c0-.62-.56-3.21-6.14-3.63Z"/>
    <path class="cls-1" d="M270.84,58.12h-12.59c-.87,0-1.57.88-1.57,1.96v67.95c0,1.08.7,1.96,1.57,1.96h12.59c.87,0,1.57-.88,1.57-1.96V60.08c0-1.08-.7-1.96-1.57-1.96Z"/>
    <path class="cls-1" d="M182.85,77.48h-12.59c-.87,0-1.57.63-1.57,1.41v31.25c0,2.73-.62,4.53-1.85,5.33-.87.57-1.99.94-3.3,1.16h-12.78c-1.32-.21-2.44-.59-3.3-1.16-1.23-.81-1.85-2.6-1.85-5.33v-31.25c0-.78-.7-1.41-1.57-1.41h-12.59c-.87,0-1.57.63-1.57,1.41v34.53c0,5.22,1.55,9.28,4.62,12.06,3.07,2.79,7.37,4.2,12.8,4.2h19.72c5.42,0,9.73-1.41,12.8-4.2,3.06-2.78,4.62-6.84,4.62-12.06v-34.53c0-.78-.7-1.41-1.57-1.41Z"/>
    <path class="cls-1" d="M120.02,121.72v-11.18c.01-.29.04-.57.04-.86v-16.46c0-11-9.98-19.95-22.24-19.95h-18.11c-12.26,0-22.24,8.95-22.24,19.95v16.46c0,11,9.98,19.95,22.24,19.95h18.11c.47,0,.98-.02,1.56-.05h.6v13c0,.37.25.71.63.85.13.05.26.07.39.07.27,0,17.42-9.57,19.02-21.78ZM81.88,116.5c-.08,0-.16.01-.24.03-4.22-.31-7.48-3.47-7.48-7.3v-15.57c0-4.04,3.66-7.32,8.16-7.32h12.91c4.5,0,8.57,3.28,8.57,7.32l-.04,22.84h-21.87Z"/>
  </g>
</svg>